<svg width="2004" height="654" viewBox="0 0 2004 654" fill="none" xmlns="http://www.w3.org/2000/svg">
<g clip-path="url(#clip0_649_8491)">
<path d="M2.8916 634.419C18.3144 634.419 57.8353 630.37 92.5366 614.176C135.913 593.934 244.355 575.137 322.433 614.176C400.511 653.215 507.506 562.125 589.922 494.168C672.337 426.211 762.28 433.85 844.398 501.397C934.043 575.136 1081.52 583.812 1176.95 530.315C1285.39 485.974 1561.56 416.669 1798.68 494.168C1840.13 507.181 1935.46 535.52 1985.2 544.774" stroke="#F1F1F1" stroke-width="10"/>
<path d="M2.8916 622.85C24.098 618.512 73.1617 604.921 99.7661 585.257C133.021 560.677 212.545 534.651 306.528 569.352C400.511 604.054 475.697 565.015 555.221 430.547C634.744 296.08 691.134 288.85 724.389 296.08C757.645 303.309 801.537 315.31 844.398 391.508C883.437 460.911 949.948 473.924 999.108 473.924C1048.27 473.924 1151.79 462.356 1375.04 346.685C1598.28 231.014 1858.45 370.784 1960.62 455.127" stroke="#F1F1F1" stroke-width="10"/>
<path d="M2.8916 606.945C19.2783 599.715 61.5946 578.605 99.7661 552.001C147.48 518.746 209.654 484.044 313.757 540.434C397.041 585.546 467.985 506.215 493.047 460.91C519.073 414.16 577.776 304.176 604.381 238.243C637.636 155.828 695.472 145.707 730.173 155.828C764.874 165.949 797.977 200.258 863.195 313.43C912.355 398.737 1029.47 426.078 1110.44 387.17C1147.55 369.338 1237.1 320.081 1298.41 265.716C1399.62 175.962 1480.11 171.733 1534.09 168.841C1616.5 168.841 1754.15 204.699 1957.73 371.266" stroke="#F1F1F1" stroke-width="10"/>
<path d="M2.8916 589.594C23.134 582.364 71.4267 557.206 102.658 514.407C141.697 460.91 251.584 446.451 309.42 504.286C355.688 550.555 413.524 511.997 436.658 486.935C471.841 439.221 551.75 306.777 589.922 158.718C637.636 -26.3551 734.511 -20.57 764.874 31.4804C810.865 110.319 879.099 353.914 1020.8 322.104C1162.49 290.295 1259.37 178.962 1359.13 105.221C1458.9 31.4804 1641.08 30.0351 1778.44 141.368C1888.33 230.435 1948.57 274.872 1964.96 285.957" stroke="#F1F1F1" stroke-width="10"/>
<path d="M0 653.213C71.3304 642.61 233.945 625.452 313.758 641.646C393.571 657.84 529.195 624.296 587.03 605.499C629.443 590.558 751.861 571.666 902.234 615.621C1090.2 670.564 1564.45 583.811 1691.69 589.594C1793.48 594.221 1942.31 613.693 2004 622.85" stroke="#F1F1F1" stroke-width="10"/>
</g>
<defs>
<clipPath id="clip0_649_8491">
<rect width="2004" height="653.213" fill="white"/>
</clipPath>
</defs>
</svg>
